<svg width="64" height="64" xmlns="http://www.w3.org/2000/svg" xmlns:svg="http://www.w3.org/2000/svg">
 <metadata id="metadata4769">image/svg+xml</metadata>

 <g>
  <title>Layer 1</title>
  <g id="tree1">
   <path id="tree1a" stroke-width="0" fill="#007f00" stroke="#00ff00" stroke-linecap="round" stroke-linejoin="round" stroke-miterlimit="4" stroke-dashoffset="0" d="m13.988693,8.048691l-3,3l1.71875,0l-2.21875,2l2,0l-2,2l3,0l0,2l1,0l0,-2l3,0l-2,-2l2,0l-2.21875,-2l1.71875,0l-3,-3z"/>
  </g>
  <g id="tree2">
   <path id="tree2a" stroke-width="0" fill="#007f00" stroke="#00ff00" stroke-linecap="round" stroke-linejoin="round" stroke-miterlimit="4" stroke-dashoffset="0" d="m48.388229,19.157707l-3,3l1.71875,0l-2.21875,2l2,0l-2,2l3,0l0,2l1,0l0,-2l3,0l-2,-2l2,0l-2.21875,-2l1.71875,0l-3,-3z"/>
  </g>
  <g id="tree3">
   <path id="tree3a" stroke-width="0" fill="#007f00" stroke="#00ff00" stroke-linecap="round" stroke-linejoin="round" stroke-miterlimit="4" stroke-dashoffset="0" d="m30.866379,41.189415l-3,3l1.71875,0l-2.21875,2l2,0l-2,2l3,0l0,2l1,0l0,-2l3,0l-2,-2l2,0l-2.21875,-2l1.71875,0l-3,-3z"/>
  </g>
 </g>
</svg>